HIERARCHY
ROOT Hips
{
    OFFSET 0.000000 0.000000 0.000000
    CHANNELS 6 Xposition Yposition Zposition Zrotation Xrotation Yrotation
    JOINT Spine
    {
        OFFSET 0.000002 7.164412 0.000002
        CHANNELS 3 Zrotation Xrotation Yrotation
        JOINT Spine1
        {
            OFFSET -0.000001 20.126801 -0.000002
            CHANNELS 3 Zrotation Xrotation Yrotation
            JOINT Neck
            {
                OFFSET 0.000000 21.094069 0.000000
                CHANNELS 3 Zrotation Xrotation Yrotation
                JOINT Head
                {
                    OFFSET -0.000001 12.838277 1.776080
                    CHANNELS 3 Zrotation Xrotation Yrotation
                    End Site
                    {
                        OFFSET 0.000000 17.760757 0.000000
                    }
                }
            }
            JOINT LeftShoulder
            {
                OFFSET 3.550527 15.465700 -0.908803
                CHANNELS 3 Zrotation Xrotation Yrotation
                JOINT LeftArm
                {
                    OFFSET 12.513296 -0.000006 -0.000002
                    CHANNELS 3 Zrotation Xrotation Yrotation
                    JOINT LeftForeArm
                    {
                        OFFSET 24.225996 -0.000003 0.000001
                        CHANNELS 3 Zrotation Xrotation Yrotation
                        JOINT LeftHand
                        {
                            OFFSET 20.711399 -0.000005 -0.000004
                            CHANNELS 3 Zrotation Xrotation Yrotation
                            JOINT LeftHandThumb1
                            {
                                OFFSET 2.121969 -2.411331 3.375859
                                CHANNELS 3 Zrotation Xrotation Yrotation
                                JOINT LeftHandThumb2
                                {
                                    OFFSET 2.803208 0.000003 0.000001
                                    CHANNELS 3 Zrotation Xrotation Yrotation
                                    JOINT LeftHandThumb3
                                    {
                                        OFFSET 2.395929 0.000004 -0.000003
                                        CHANNELS 3 Zrotation Xrotation Yrotation
                                        End Site
                                        {
                                            OFFSET 2.127676 0.000000 0.000000
                                        }
                                    }
                                }
                            }
                            JOINT LeftHandIndex1
                            {
                                OFFSET 8.680775 0.000005 3.375860
                                CHANNELS 3 Zrotation Xrotation Yrotation
                                JOINT LeftHandIndex2
                                {
                                    OFFSET 4.218178 -0.000000 -0.000000
                                    CHANNELS 3 Zrotation Xrotation Yrotation
                                    JOINT LeftHandIndex3
                                    {
                                        OFFSET 2.109086 -0.000004 0.000002
                                        CHANNELS 3 Zrotation Xrotation Yrotation
                                        End Site
                                        {
                                            OFFSET 1.872952 0.000000 0.000000
                                        }
                                    }
                                }
                            }
                            JOINT LeftHandMiddle1
                            {
                                OFFSET 8.680778 -0.000002 1.118860
                                CHANNELS 3 Zrotation Xrotation Yrotation
                                JOINT LeftHandMiddle2
                                {
                                    OFFSET 4.640003 -0.000004 -0.000001
                                    CHANNELS 3 Zrotation Xrotation Yrotation
                                    JOINT LeftHandMiddle3
                                    {
                                        OFFSET 2.530911 0.000002 -0.000001
                                        CHANNELS 3 Zrotation Xrotation Yrotation
                                        End Site
                                        {
                                            OFFSET 2.247544 0.000000 0.000000
                                        }
                                    }
                                }
                            }
                            JOINT LeftHandRing1
                            {
                                OFFSET 8.198517 0.000004 -1.118860
                                CHANNELS 3 Zrotation Xrotation Yrotation
                                JOINT LeftHandRing2
                                {
                                    OFFSET 4.218183 -0.000002 -0.000002
                                    CHANNELS 3 Zrotation Xrotation Yrotation
                                    JOINT LeftHandRing3
                                    {
                                        OFFSET 2.109094 0.000005 -0.000000
                                        CHANNELS 3 Zrotation Xrotation Yrotation
                                        End Site
                                        {
                                            OFFSET 1.872952 0.000000 0.000000
                                        }
                                    }
                                }
                            }
                            JOINT LeftHandPinky1
                            {
                                OFFSET 7.716254 0.000002 -3.375863
                                CHANNELS 3 Zrotation Xrotation Yrotation
                                JOINT LeftHandPinky2
                                {
                                    OFFSET 3.374536 0.000002 0.000001
                                    CHANNELS 3 Zrotation Xrotation Yrotation
                                    JOINT LeftHandPinky3
                                    {
                                        OFFSET 1.687274 -0.000002 -0.000004
                                        CHANNELS 3 Zrotation Xrotation Yrotation
                                        End Site
                                        {
                                            OFFSET 1.498360 0.000000 0.000000
                                        }
                                    }
                                }
                            }
                        }
                    }
                }
            }
            JOINT RightShoulder
            {
                OFFSET -3.550529 15.465699 -0.908801
                CHANNELS 3 Zrotation Xrotation Yrotation
                JOINT RightArm
                {
                    OFFSET -12.513299 -0.000001 -0.000000
                    CHANNELS 3 Zrotation Xrotation Yrotation
                    JOINT RightForeArm
                    {
                        OFFSET -24.226000 -0.000003 -0.000001
                        CHANNELS 3 Zrotation Xrotation Yrotation
                        JOINT RightHand
                        {
                            OFFSET -20.711397 -0.000003 -0.000002
                            CHANNELS 3 Zrotation Xrotation Yrotation
                            JOINT RightHandThumb1
                            {
                                OFFSET -2.121970 -2.411331 3.375859
                                CHANNELS 3 Zrotation Xrotation Yrotation
                                JOINT RightHandThumb2
                                {
                                    OFFSET -2.803209 -0.000004 0.000004
                                    CHANNELS 3 Zrotation Xrotation Yrotation
                                    JOINT RightHandThumb3
                                    {
                                        OFFSET -2.395928 0.000004 -0.000003
                                        CHANNELS 3 Zrotation Xrotation Yrotation
                                        End Site
                                        {
                                            OFFSET -2.127676 0.000000 0.000000
                                        }
                                    }
                                }
                            }
                            JOINT RightHandIndex1
                            {
                                OFFSET -8.680779 0.000001 3.375859
                                CHANNELS 3 Zrotation Xrotation Yrotation
                                JOINT RightHandIndex2
                                {
                                    OFFSET -4.218179 0.000003 -0.000001
                                    CHANNELS 3 Zrotation Xrotation Yrotation
                                    JOINT RightHandIndex3
                                    {
                                        OFFSET -2.109090 -0.000002 0.000000
                                        CHANNELS 3 Zrotation Xrotation Yrotation
                                        End Site
                                        {
                                            OFFSET -1.872952 0.000000 0.000000
                                        }
                                    }
                                }
                            }
                            JOINT RightHandMiddle1
                            {
                                OFFSET -8.680779 -0.000002 1.118859
                                CHANNELS 3 Zrotation Xrotation Yrotation
                                JOINT RightHandMiddle2
                                {
                                    OFFSET -4.639998 0.000003 -0.000001
                                    CHANNELS 3 Zrotation Xrotation Yrotation
                                    JOINT RightHandMiddle3
                                    {
                                        OFFSET -2.530910 -0.000000 -0.000000
                                        CHANNELS 3 Zrotation Xrotation Yrotation
                                        End Site
                                        {
                                            OFFSET -2.247544 0.000000 0.000000
                                        }
                                    }
                                }
                            }
                            JOINT RightHandRing1
                            {
                                OFFSET -8.198519 -0.000004 -1.118859
                                CHANNELS 3 Zrotation Xrotation Yrotation
                                JOINT RightHandRing2
                                {
                                    OFFSET -4.218180 -0.000005 0.000000
                                    CHANNELS 3 Zrotation Xrotation Yrotation
                                    JOINT RightHandRing3
                                    {
                                        OFFSET -2.109090 0.000002 0.000002
                                        CHANNELS 3 Zrotation Xrotation Yrotation
                                        End Site
                                        {
                                            OFFSET -1.872952 0.000000 0.000000
                                        }
                                    }
                                }
                            }
                            JOINT RightHandPinky1
                            {
                                OFFSET -7.716249 0.000004 -3.375858
                                CHANNELS 3 Zrotation Xrotation Yrotation
                                JOINT RightHandPinky2
                                {
                                    OFFSET -3.374539 0.000003 -0.000000
                                    CHANNELS 3 Zrotation Xrotation Yrotation
                                    JOINT RightHandPinky3
                                    {
                                        OFFSET -1.687270 -0.000004 -0.000001
                                        CHANNELS 3 Zrotation Xrotation Yrotation
                                        End Site
                                        {
                                            OFFSET -1.498360 0.000000 0.000000
                                        }
                                    }
                                }
                            }
                        }
                    }
                }
            }
        }
    }
    JOINT LeftUpLeg
    {
        OFFSET 8.880377 0.000003 0.000001
        CHANNELS 3 Zrotation Xrotation Yrotation
        JOINT LeftLeg
        {
            OFFSET -0.000000 -40.387413 0.000001
            CHANNELS 3 Zrotation Xrotation Yrotation
            JOINT LeftFoot
            {
                OFFSET -0.000000 -36.911304 0.000000
                CHANNELS 3 Zrotation Xrotation Yrotation
                JOINT LeftToeBase
                {
                    OFFSET 0.000003 -5.772240 13.320597
                    CHANNELS 3 Zrotation Xrotation Yrotation
                    End Site
                    {
                        OFFSET 0.000000 0.000000 3.552151
                    }
                }
            }
        }
    }
    JOINT RightUpLeg
    {
        OFFSET -8.880380 -0.000003 -0.000001
        CHANNELS 3 Zrotation Xrotation Yrotation
        JOINT RightLeg
        {
            OFFSET 0.000001 -40.387405 0.000000
            CHANNELS 3 Zrotation Xrotation Yrotation
            JOINT RightFoot
            {
                OFFSET -0.000001 -36.911304 -0.000001
                CHANNELS 3 Zrotation Xrotation Yrotation
                JOINT RightToeBase
                {
                    OFFSET 0.000000 -5.772241 13.320600
                    CHANNELS 3 Zrotation Xrotation Yrotation
                    End Site
                    {
                        OFFSET 0.000000 0.000000 3.552151
                    }
                }
            }
        }
    }
}
MOTION
Frames: 4
Frame Time: 0.013889
66.243591    80.003151    -16.742359    9.230296    -3.169146    -5.312090    -0.008970    -10.752443    -0.048074    5.394286    13.771248    -1.333731    5.792075    -5.087882    6.666955    6.899009    5.020561    5.571412    14.072825    -5.668435    4.674698    -48.776302    -40.751045    -46.449966    -71.064629    29.923927    -99.711464    -71.225403    16.851864    13.596350    30.209723    35.079239    -44.820538    -17.567728    -2.434118    23.197124    -0.000000    0.000000    -0.000000    -7.395513    17.859764    -5.154144    -7.037267    0.000002    0.000001    -7.037277    0.000000    -0.000005    -14.106944    8.732835    -1.531756    -13.940071    0.000000    0.000003    -13.940075    -0.000000    0.000001    -17.594965    -8.585383    -0.727341    -17.391478    0.000001    0.000001    -17.391472    -0.000006    -0.000006    -21.816895    -16.785772    -2.628443    -20.842873    0.000001    0.000001    -20.842880    -0.000004    -0.000007    5.248815    7.403081    7.280425    17.126472    54.346581    18.685181    1.281754    -0.477158    69.584366    -1.810897    25.615253    20.250959    -27.784847    37.201035    51.133400    21.220825    -3.990031    -22.992355    -0.000000    0.000000    -0.000000    7.645288    17.850130    23.103903    7.275213    -0.000003    0.000001    7.275211    -0.000003    0.000001    0.782449    8.999179    12.607646    0.772821    -0.000000    -0.000001    0.772818    0.000003    0.000002    -2.509231    -8.991523    5.337172    -2.478380    0.000000    -0.000001    -2.478378    -0.000000    0.000000    -6.022316    -17.906988    9.601258    -5.729580    0.000003    0.000001    -5.729577    -0.000000    0.000000    -11.088769    -27.791775    -2.143032    -0.000002    64.661324    0.000002    -3.110583    5.409894    2.712783    0.000000    0.193909    -0.000001    -15.768679    -12.496424    -15.151124    0.000001    44.477421    -0.000003    7.637437    -22.681801    11.168015    -0.000000    -1.456404    0.000001    
66.307190    79.911293    -16.730755    8.959576    -3.145202    -4.988640    -0.023136    -10.779851    -0.123695    5.355588    13.769920    -1.396744    6.231327    -5.137772    6.647506    6.976787    4.981330    5.502175    14.001242    -5.729301    4.576400    -49.552158    -40.814075    -47.194599    -71.697128    29.804625    -99.336433    -71.361557    16.677366    13.583098    30.514475    34.819447    -45.207306    -17.701591    -2.491426    23.191381    -0.000000    0.000000    -0.000000    -7.342795    17.861753    -5.499770    -6.987054    0.000001    -0.000002    -6.987060    -0.000001    0.000001    -14.211886    8.728863    -1.680554    -14.043880    0.000000    -0.000000    -14.043884    0.000001    0.000000    -17.777618    -8.576790    -0.790036    -17.572285    0.000000    0.000000    -17.572315    -0.000002    -0.000001    -22.084372    -16.755989    -2.776504    -21.100710    0.000000    0.000000    -21.100714    -0.000007    -0.000001    5.298223    7.388452    7.317354    17.371384    54.275028    18.602459    1.391112    -0.520798    69.479385    -1.927537    25.443731    20.227245    -27.655319    37.332294    51.148609    21.347174    -4.043502    -22.983511    -0.000000    0.000000    -0.000000    8.544297    17.812868    23.182785    8.131848    -0.000003    0.000000    8.131845    0.000000    0.000002    1.216107    8.998011    12.716908    1.201136    -0.000000    -0.000002    1.201131    -0.000003    0.000001    -2.292410    -8.992929    5.371058    -2.264224    0.000007    0.000002    -2.264223    -0.000003    -0.000003    -6.022317    -17.906981    9.601262    -5.729578    -0.000003    0.000001    -5.729581    0.000000    -0.000006    -10.295498    -27.616964    -2.284421    0.000001    64.900864    -0.000000    -2.665344    4.540035    3.380450    -0.000000    0.191019    0.000000    -15.361992    -12.516130    -14.810024    -0.000002    44.684063    0.000003    7.297437    -22.877457    10.384677    0.000001    -1.383193    0.000000    
66.375832    79.817505    -16.718145    8.680850    -3.098435    -4.688897    -0.037030    -10.830488    -0.197050    5.314313    13.775078    -1.457509    6.649498    -5.229261    6.640028    7.061602    4.915709    5.444686    13.953107    -5.754637    4.476781    -50.226643    -40.896919    -47.836102    -72.295624    29.705257    -98.989029    -71.459778    16.486483    13.586179    30.906906    34.479115    -45.651318    -17.777788    -2.524045    23.188042    -0.000000    0.000000    -0.000000    -7.403824    17.859455    -5.735689    -7.045186    0.000000    -0.000002    -7.045186    -0.000003    -0.000000    -14.336804    8.724094    -1.788920    -14.167439    0.000001    0.000001    -14.167443    -0.000001    0.000001    -17.935474    -8.569295    -0.754581    -17.728575    -0.000001    -0.000000    -17.728563    0.000005    0.000003    -22.280392    -16.733946    -2.715005    -21.289682    -0.000001    0.000001    -21.289694    0.000008    0.000004    5.344478    7.451517    7.387097    17.352160    54.309864    18.775967    1.062167    -0.401102    69.314445    -2.491614    25.899576    20.205822    -27.002762    37.966682    50.708580    21.711588    -4.197564    -22.957323    -0.000000    0.000000    -0.000000    9.307179    17.777998    23.282610    8.859064    -0.000003    -0.000001    8.859059    0.000003    -0.000001    1.584237    8.996618    12.825823    1.564742    -0.000003    0.000000    1.564742    0.000003    -0.000002    -2.108354    -8.994014    5.399832    -2.082420    -0.000000    0.000001    -2.082420    0.000000    -0.000003    -6.022316    -17.906969    9.601264    -5.729578    0.000000    -0.000000    -5.729575    -0.000003    0.000001    -9.415159    -27.451548    -2.392800    0.000003    65.112389    -0.000003    -2.147756    3.856125    4.061975    -0.000000    0.204682    0.000000    -14.892329    -12.550870    -14.300607    0.000000    44.844738    0.000001    6.959876    -23.108454    9.468653    0.000000    -1.306484    0.000001    
66.464851    79.706093    -16.678459    8.276121    -3.011737    -4.271298    -0.058067    -10.934655    -0.306107    5.239056    13.759212    -1.542331    7.229425    -5.352207    6.653749    7.195965    4.833889    5.384774    13.941818    -5.747842    4.353837    -51.081478    -40.840870    -48.641953    -73.044144    29.633631    -98.572960    -71.482292    16.467974    13.506050    31.506866    33.942432    -46.307972    -17.823622    -2.543650    23.186031    -0.000000    0.000000    -0.000000    -7.634572    17.850563    -5.971980    -7.265013    -0.000002    -0.000001    -7.265007    -0.000001    -0.000000    -14.532114    8.716561    -1.912830    -14.360628    0.000001    0.000002    -14.360630    -0.000002    0.000001    -18.117176    -8.560588    -0.609095    -17.908443    0.000000    0.000002    -17.908445    -0.000001    -0.000005    -22.453106    -16.714357    -2.419616    -21.456255    0.000000    0.000002    -21.456255    -0.000001    -0.000005    5.401305    7.436766    7.405465    17.469074    54.319225    18.925890    1.141546    -0.433805    69.195145    -2.719491    25.557051    19.947067    -25.575268    39.206459    48.840832    22.375969    -4.477847    -22.907070    -0.000000    0.000000    -0.000000    10.038960    17.741770    23.549696    9.556916    -0.000003    0.000001    9.556918    0.000000    -0.000000    1.937504    8.994940    13.015738    1.913666    0.000000    0.000000    1.913666    0.000000    0.000002    -1.931720    -8.994986    5.427449    -1.907956    0.000003    0.000001    -1.907954    0.000003    0.000004    -6.022316    -17.906971    9.601262    -5.729581    0.000003    0.000001    -5.729577    0.000003    0.000002    -8.176467    -27.151686    -2.731160    -0.000002    65.238312    0.000003    -1.339565    3.041888    4.991713    -0.000001    0.238595    0.000000    -14.270145    -12.582075    -13.709376    0.000001    45.008869    -0.000000    6.816741    -23.397638    8.424967    -0.000000    -1.203041    -0.000000    
